<svg xmlns="http://www.w3.org/2000/svg" viewBox="0 0 429.94 55.5"><defs><style>.cls-1{fill:#00c8ff;}</style></defs><title>logoBlack</title><g id="Calque_2" data-name="Calque 2"><g id="OBJECTS"><path d="M48.43,47.6C43,53,35.89,55.5,28.21,55.5,8.44,55.5.08,41.89,0,28.06S9,0,28.21,0A27.45,27.45,0,0,1,47.75,8.14L41.06,14.6a18.29,18.29,0,0,0-12.85-5c-12.85,0-18.4,9.58-18.33,18.48s5.18,18,18.33,18a19.58,19.58,0,0,0,13.38-5.4Z"/><path d="M106.37,28c-.15,13.76-8.59,27.52-27.3,27.52S51.7,42.05,51.7,28.06,60.67,0,79.07,0,106.52,14.07,106.37,28Zm-44.79.23c.23,8.74,5,18.09,17.49,18.09s17.26-9.42,17.41-18.17c.15-9-4.86-19-17.41-19S61.35,19.24,61.58,28.21Z"/><path d="M166.05,28c-.15,13.76-8.59,27.52-27.3,27.52s-27.37-13.45-27.37-27.44S120.35,0,138.75,0,166.2,14.07,166.05,28Zm-44.78.23c.22,8.74,4.94,18.09,17.48,18.09S156,36.88,156.16,28.13c.16-9-4.86-19-17.41-19S121,19.24,121.27,28.21Z"/><path d="M198.51,38.63h-15V54.29h-10V1.06c8.36,0,16.73-.07,25.09-.07C224.51,1,224.59,38.63,198.51,38.63Zm-15-9.21h15c12.85,0,12.77-18.85,0-18.85h-15Z"/><path d="M256.44,4.79H237.21V1.14h42.58V4.79H260.55v49.5h-4.11Z"/><path d="M291.57,25.62h31.17v3.73H291.57v21h33.6v4H287.54V1.06h36.72V4.94H291.57Z"/><path d="M378.17,46.91a27.4,27.4,0,0,1-19.39,8c-17.95,0-27.3-12.55-27.37-26.92C331.25,13.76,340.53.46,358.78.46a27.43,27.43,0,0,1,19.39,8l-2.82,2.43a23.27,23.27,0,0,0-16.57-6.76c-15.51,0-23.5,10.94-23.42,23.72.15,12.47,8.06,23.27,23.42,23.27a23.81,23.81,0,0,0,16.65-6.77Z"/><path d="M425.84,54.29V30.11H391.92V54.29h-4.1V1.06h4.1V26.38h33.92V1.06h4.1V54.29Z"/><circle class="cls-1" cx="230.13" cy="44.55" r="10.28"/></g></g></svg>